<?xml version="1.0" standalone="no"?>
<!DOCTYPE svg PUBLIC "-//W3C//DTD SVG 20010904//EN"
 "http://www.w3.org/TR/2001/REC-SVG-20010904/DTD/svg10.dtd">
<svg version="1.0" xmlns="http://www.w3.org/2000/svg"
 width="24.000000pt" height="24.000000pt" viewBox="0 0 24.000000 24.000000"
 preserveAspectRatio="xMidYMid meet">

<g transform="translate(0.000000,24.000000) scale(0.100000,-0.100000)"
fill="#000000" stroke="none">
<path d="M42 128 l3 -83 83 -3 c52 -2 82 1 82 8 0 6 -30 10 -75 10 l-75 0 0
75 c0 45 -4 75 -10 75 -7 0 -10 -30 -8 -82z"/>
<path d="M178 163 c-14 -14 -20 -14 -33 -3 -14 12 -21 9 -48 -18 -36 -36 -29
-57 8 -22 20 19 27 21 40 10 13 -11 20 -9 40 10 25 23 32 40 17 40 -4 0 -15
-7 -24 -17z"/>
</g>
</svg>
